<svg width="200" height="200" viewBox="0 0 200 200" xmlns="http://www.w3.org/2000/svg">
  <!-- Discord-inspired mascot with RP elements -->
  <defs>
    <linearGradient id="bodyGradient" x1="0%" y1="0%" x2="100%" y2="100%">
      <stop offset="0%" style="stop-color:#5865F2"/>
      <stop offset="100%" style="stop-color:#404EED"/>
    </linearGradient>
    <linearGradient id="accentGradient" x1="0%" y1="0%" x2="100%" y2="100%">
      <stop offset="0%" style="stop-color:#FF73FA"/>
      <stop offset="100%" style="stop-color:#4340FF"/>
    </linearGradient>
  </defs>
  
  <!-- Body -->
  <ellipse cx="100" cy="130" rx="45" ry="35" fill="url(#bodyGradient)"/>
  
  <!-- Head -->
  <circle cx="100" cy="80" r="35" fill="url(#bodyGradient)"/>
  
  <!-- Ears -->
  <ellipse cx="65" cy="65" rx="8" ry="15" fill="url(#bodyGradient)" transform="rotate(-30 65 65)"/>
  <ellipse cx="135" cy="65" rx="8" ry="15" fill="url(#bodyGradient)" transform="rotate(30 135 65)"/>
  
  <!-- Eyes - Discord style -->
  <ellipse cx="85" cy="75" rx="8" ry="6" fill="#FFFFFF"/>
  <ellipse cx="115" cy="75" rx="8" ry="6" fill="#FFFFFF"/>
  <circle cx="85" cy="75" r="4" fill="#000000"/>
  <circle cx="115" cy="75" r="4" fill="#000000"/>
  
  <!-- RP elements - dice and quill -->
  <g transform="translate(70, 110)">
    <!-- Dice -->
    <rect x="0" y="0" width="20" height="20" rx="3" fill="#FFFFFF" stroke="#5865F2" stroke-width="2"/>
    <circle cx="5" cy="5" r="2" fill="#5865F2"/>
    <circle cx="15" cy="5" r="2" fill="#5865F2"/>
    <circle cx="10" cy="10" r="2" fill="#5865F2"/>
    <circle cx="5" cy="15" r="2" fill="#5865F2"/>
    <circle cx="15" cy="15" r="2" fill="#5865F2"/>
  </g>
  
  <g transform="translate(110, 110)">
    <!-- Quill -->
    <path d="M10 0 L15 5 L10 10 L5 5 Z" fill="url(#accentGradient)"/>
    <path d="M10 10 L10 20" stroke="#5865F2" stroke-width="2"/>
  </g>
  
  <!-- Smile -->
  <path d="M85 90 Q100 100 115 90" stroke="#FFFFFF" stroke-width="3" fill="none"/>
  
  <!-- Speech bubble -->
  <g transform="translate(130, 40)">
    <path d="M0 0 L20 0 L20 15 L10 25 L0 15 Z" fill="#5865F2" opacity="0.8"/>
    <text x="10" y="12" text-anchor="middle" font-size="8" fill="#FFFFFF" font-family="Arial">RP</text>
  </g>
  
  <!-- Sparkles -->
  <circle cx="50" cy="40" r="3" fill="#FFD700" opacity="0.7"/>
  <circle cx="150" cy="50" r="2" fill="#FFD700" opacity="0.7"/>
  <circle cx="160" cy="90" r="2.5" fill="#FFD700" opacity="0.7"/>
</svg>
